# xmcd
#
# Track frame offsets:
#	150
#	25615
#	40192
#	60135
#	78670
#	91085
#	105057
#	119070
#	133217
#	150312
#	173185
#	193212
#	210690
#	225685
#	239652
#	258277
#
# Disc length: 3761 seconds
#
# Revision: 1
# Processed by: cddbd v1.4PL0 Copyright (c) Steve Scherf et al.
# Submitted via: audiograbber 1.81.03
#
DISCID=cb0eaf10
DTITLE=Various Artist - Blue Highways
DYEAR=2001
DGENRE=Blues
TTITLE0=Mary Gauthier - Drag Queens In Limousines
TTITLE1=Buddy Miller - Cruel Moon
TTITLE2=Larry John Mcnally - Black Guitar
TTITLE3=Dave Alvin - Shenandoah
TTITLE4=The Hollisters - Holes In The Road (Dumptruck)
TTITLE5=Robbie Fulks - Parallel Bars
TTITLE6=Slaid Cleaves - Key Chain
TTITLE7=The Cash Brothers - Priceless
TTITLE8=Jimmie Dale Gilmore - One Endless Night
TTITLE9=Hazeldine - Yer Shoes
TTITLE10=Kristi Rose and Pulp Country - Johnny Guitar
TTITLE11=Jon Dee Graham - A Place In The Shade
TTITLE12=Bill Mallonee and Vigilantes Of Love - Goes Without Saying
TTITLE13=Chris Gaffney - Loser's Paradise
TTITLE14=Julie Miller - Maggie
TTITLE15=David Olney - 1917
EXTD=
EXTT0=
EXTT1=
EXTT2=
EXTT3=
EXTT4=
EXTT5=
EXTT6=
EXTT7=
EXTT8=
EXTT9=
EXTT10=
EXTT11=
EXTT12=
EXTT13=
EXTT14=
EXTT15=
PLAYORDER=
